Coordinates
version=1
nRows=16
nColumns=40
inDegrees=yes

Units are S.I. units (second, meters, Newtons, ...)
Angles are in degrees.

endheader
time	pelvis_tilt	pelvis_list	pelvis_rotation	pelvis_tx	pelvis_ty	pelvis_tz	hip_flexion_r	hip_adduction_r	hip_rotation_r	knee_angle_r	knee_angle_r_beta	ankle_angle_r	subtalar_angle_r	mtp_angle_r	hip_flexion_l	hip_adduction_l	hip_rotation_l	knee_angle_l	knee_angle_l_beta	ankle_angle_l	subtalar_angle_l	mtp_angle_l	lumbar_extension	lumbar_bending	lumbar_rotation	arm_flex_r	arm_add_r	arm_rot_r	elbow_flex_r	pro_sup_r	wrist_flex_r	wrist_dev_r	arm_flex_l	arm_add_l	arm_rot_l	elbow_flex_l	pro_sup_l	wrist_flex_l	wrist_dev_l
     50.93214286	     -0.23909722	     -6.62860172	      0.22318960	      0.90755360	      0.91474731	      0.54451147	     11.46551719	      7.68572704	    -10.17927535	     28.25781499	     28.25781499	     18.27362393	    -11.73083386	      0.07419998	     27.02068868	    -16.83537588	      2.11723379	     65.63926512	     65.63926512	     14.82308650	    -19.67566583	     24.51223555	    -12.73543184	      6.03611545	      0.22854818	     23.24976468	    -17.69529464	    -17.94021852	     40.41940177	     46.07456314	      0.00000000	      0.00000000	      3.09111113	     -7.77934596	     -2.35500797	     23.53732151	     46.35785794	      0.00000000	      0.00000000
     50.95178571	     -0.22120570	     -6.47142142	      1.17125275	      0.90609165	      0.91484067	      0.54420086	     11.01064042	      7.53788496	    -10.65315587	     27.96384366	     27.96384366	     18.52160752	    -12.09965707	      0.23002845	     28.06357775	    -16.17338430	      2.38030437	     63.28019317	     63.28019317	     15.83681331	    -19.66126801	     24.44520179	    -12.71474537	      5.79025848	      0.35844311	     25.02303468	    -17.89942013	    -17.93367476	     42.07422462	     46.01990783	      0.00000000	      0.00000000	      1.12983152	     -7.48706608	     -2.03813345	     22.93083737	     46.25066974	      0.00000000	      0.00000000
     50.97142857	     -0.31173634	     -6.29900190	      2.13046452	      0.90444651	      0.91529099	      0.54349063	     10.54543110	      7.34280884	    -11.24718273	     27.41423588	     27.41423588	     18.66277534	    -12.22352095	      0.38040457	     29.03949804	    -15.35942409	      2.65807749	     60.42560964	     60.42560964	     16.36970087	    -19.63384181	     24.07033338	    -12.63312000	      5.56170301	      0.36069037	     26.78126141	    -18.08665483	    -17.80119830	     44.36169492	     45.93441962	      0.00000000	      0.00000000	     -1.00829762	     -7.30335652	     -1.58148342	     22.85894721	     46.10029088	      0.00000000	      0.00000000
     50.99107143	     -0.46852372	     -6.06015729	      3.04774573	      0.90276205	      0.91622439	      0.54253236	      9.98887706	      7.06619324	    -11.89122970	     26.58134074	     26.58134074	     18.67591239	    -12.11803721	      0.48677985	     29.80382601	    -14.40917757	      2.86472508	     57.05109235	     57.05109235	     16.35707676	    -19.59238763	     23.41058334	    -12.53711873	      5.25184569	      0.52259340	     28.44288812	    -18.38095274	    -17.59333040	     46.62776647	     45.84784280	      0.00000000	      0.00000000	     -3.05505665	     -7.20378363	     -1.16285913	     23.07271853	     45.95787000	      0.00000000	      0.00000000
     51.01071429	     -0.86284828	     -5.84243402	      3.93987865	      0.90084503	      0.91708617	      0.54129951	      9.65611006	      6.75330430	    -12.70213616	     25.66231782	     25.66231782	     18.53666337	    -11.80994323	      0.26526599	     30.61694952	    -13.44135572	      3.03048822	     53.27244959	     53.27244959	     15.46561085	    -19.51670915	     21.44529449	    -12.29028054	      4.99292178	      0.70374900	     29.51431265	    -18.98481507	    -16.73201580	     50.54373239	     45.66980348	      0.00000000	      0.00000000	     -5.60044339	     -7.36697018	      0.11564159	     25.04925058	     45.61593366	      0.00000000	      0.00000000
     51.03035714	     -1.17640616	     -5.57112906	      4.74245220	      0.89900463	      0.91840752	      0.53990271	      9.06318288	      6.43870405	    -13.35776826	     24.44513359	     24.44513359	     18.22426932	    -11.52382515	     -0.07219546	     31.03024763	    -12.42540762	      3.13551667	     49.11089294	     49.11089294	     14.20152451	    -19.40839335	     19.38759837	    -12.15324485	      4.66270141	      1.18390109	     30.79023765	    -19.86869008	    -15.82536393	     53.60169485	     45.53720632	      0.00000000	      0.00000000	     -7.72200197	     -7.75035294	      2.80677187	     26.59659024	     45.09587749	      0.00000000	      0.00000000
     51.05000000	     -1.57709346	     -5.33627058	      5.52152684	      0.89703576	      0.91970723	      0.53824830	      8.52396965	      6.12142107	    -14.19600095	     23.16284645	     23.16284645	     18.01915809	    -10.86044764	     -0.07555620	     31.40663579	    -11.37957771	      3.38560900	     44.86059358	     44.86059358	     13.04473383	    -19.19642172	     18.50023046	    -11.92869773	      4.36655369	      1.16096794	     32.90071798	    -20.00471583	    -15.67562639	     55.73746041	     45.47002964	      0.00000000	      0.00000000	     -9.39847036	     -7.75152433	      3.54797020	     26.66043154	     44.95102894	      0.00000000	      0.00000000
     51.06964286	     -2.02154186	     -5.11709290	      6.19505032	      0.89516150	      0.92076746	      0.53658551	      8.05900376	      5.80529027	    -15.01075357	     21.96143975	     21.96143975	     17.73582638	    -10.12221809	     -0.52922687	     31.52739673	    -10.49921140	      3.42307837	     40.29090995	     40.29090995	     10.70749021	    -18.86553486	     14.89955278	    -11.71150910	      4.09289990	      1.44686622	     34.42621560	    -20.61658005	    -14.94797553	     58.85210948	     45.35317769	      0.00000000	      0.00000000	    -11.28919785	     -8.01964560	      4.93834553	     28.12002214	     44.71446433	      0.00000000	      0.00000000
     51.08928571	     -2.58717412	     -4.89016371	      6.73015657	      0.89323910	      0.92160885	      0.53483024	      7.74758466	      5.53625697	    -15.45632839	     20.78634462	     20.78634462	     17.50785107	     -9.83106758	     -0.34159017	     31.75816334	     -9.60633189	      3.57866596	     36.07919472	     36.07919472	      9.79971768	    -17.97375753	     15.17067378	    -11.32484812	      3.70402370	      1.83988399	     36.48138937	    -21.02604704	    -14.90778346	     60.14816415	     45.31915487	      0.00000000	      0.00000000	    -12.35288004	     -7.89664743	      5.15770815	     27.93964363	     44.66833285	      0.00000000	      0.00000000
     51.10892857	     -2.87552964	     -4.83678355	      7.25731546	      0.89173634	      0.92230578	      0.53298838	      7.06356372	      5.41993271	    -16.32184197	     19.51526453	     19.51526453	     17.16295859	     -8.84074516	     -1.15842937	     31.37104795	     -9.12300262	      3.43789150	     31.49577847	     31.49577847	      6.78642472	    -16.97756966	      9.62505875	    -11.35095664	      3.63535044	      1.95026233	     38.12244993	    -21.56733653	    -13.64601516	     63.51321063	     45.19487012	      0.00000000	      0.00000000	    -14.10674592	     -8.21556622	      6.96358861	     29.50411254	     44.43466624	      0.00000000	      0.00000000
     51.12857143	     -3.28090513	     -4.79139132	      7.66689141	      0.89024430	      0.92259673	      0.53118138	      6.64011529	      5.34380842	    -16.79637159	     18.49673266	     18.49673266	     17.06281524	     -8.29357829	     -1.13310516	     31.33054683	     -8.71770071	      3.20448828	     27.83737163	     27.83737163	      6.25267062	    -14.73672852	      9.73850789	    -11.17927065	      3.47662632	      2.08746314	     40.31612823	    -21.56227228	    -13.47680591	     64.99775543	     45.15340677	      0.00000000	      0.00000000	    -15.01782312	     -8.05165571	      7.28789712	     29.30043874	     44.38867999	      0.00000000	      0.00000000
     51.14821429	     -3.67384487	     -4.80252721	      7.97227199	      0.88899628	      0.92249779	      0.52936735	      6.25916741	      5.30971742	    -17.26378616	     17.61829993	     17.61829993	     17.02710645	     -7.69331203	     -1.21672918	     31.24845686	     -8.48223486	      2.75305861	     24.58631059	     24.58631059	      5.77759210	    -12.19913596	      9.59427659	    -11.01853319	      3.34868133	      2.23178689	     42.37594529	    -21.52648752	    -13.08885734	     66.53895120	     45.10157821	      0.00000000	      0.00000000	    -15.85971491	     -7.87095980	      7.56760009	     29.25469672	     44.34841335	      0.00000000	      0.00000000
     51.16785714	     -3.98487491	     -4.96341371	      8.20653988	      0.88808962	      0.92195776	      0.52753045	      5.81500965	      5.43422861	    -17.75878196	     16.78228748	     16.78228748	     16.87117195	     -7.01727177	     -2.01326778	     31.09431823	     -8.49560607	      2.12806453	     21.74461040	     21.74461040	      4.49676887	     -9.77488923	      7.00958868	    -10.93489259	      3.41485282	      2.34223215	     44.23916514	    -21.81263207	    -11.51690847	     68.55765179	     45.03304549	      0.00000000	      0.00000000	    -16.86587689	     -7.91649512	      8.93709064	     30.15107665	     44.24841516	      0.00000000	      0.00000000
     51.18750000	     -4.33118909	     -5.03027784	      8.34742881	      0.88736155	      0.92126238	      0.52558673	      5.53448034	      5.44057831	    -17.97973169	     16.25748030	     16.25748030	     17.00234987	     -6.67075827	     -2.07961101	     30.98451540	     -8.38275393	      1.62908235	     19.53577240	     19.53577240	      4.15512351	     -7.72068070	      7.15400470	    -10.78669259	      3.29243011	      2.51866607	     46.11632807	    -21.61435867	    -11.31779369	     69.63118257	     45.00380223	      0.00000000	      0.00000000	    -17.30958823	     -7.68056038	      9.16400222	     29.95575563	     44.22562926	      0.00000000	      0.00000000
     51.20714286	     -4.61837909	     -5.16222697	      8.43604639	      0.88697074	      0.92034644	      0.52361668	      5.20179809	      5.51465481	    -18.19129937	     15.78187681	     15.78187681	     17.18217903	     -6.21383966	     -2.19898864	     30.91766570	     -8.40093727	      1.04122962	     17.99140075	     17.99140075	      3.81877942	     -5.85227316	      6.89190514	    -10.68524527	      3.23294931	      2.58565771	     47.88586661	    -21.28598593	    -10.86004040	     70.72401671	     44.96524662	      0.00000000	      0.00000000	    -17.64876502	     -7.41942229	      9.42846991	     29.75737405	     44.20061742	      0.00000000	      0.00000000
     51.22678571	     -4.87612414	     -5.35299190	      8.47187068	      0.88699692	      0.91919099	      0.52151249	      4.84205336	      5.63422180	    -18.41606246	     15.36391022	     15.36391022	     17.41330849	     -5.67259592	     -2.37565990	     30.94843877	     -8.53305898	      0.33548688	     17.12667740	     17.12667740	      3.25966407	     -4.33302973	      5.68982738	    -10.58904538	      3.21427577	      2.54738272	     49.53507492	    -20.94213418	     -9.95932765	     71.71541842	     44.92159822	      0.00000000	      0.00000000	    -17.85661444	     -7.15883280	      9.85437681	     29.48949032	     44.17095880	      0.00000000	      0.00000000
